<svg xmlns="http://www.w3.org/2000/svg" version="1.1" viewBox="-5.0 -10.0 110.0 135.0">
 <path d="m45.477 35.156c-0.039062-1.2891-1.9141-1.293-1.9531 0v2.7578c0.039062 1.2891 1.9141 1.293 1.9531 0v-2.7578z"/>
 <path d="m55.5 34.18c-0.53906 0-0.97656 0.4375-0.97656 0.97656v2.7578c0.039062 1.2891 1.9141 1.293 1.9531 0v-2.7578c0-0.53906-0.4375-0.97656-0.97656-0.97656z"/>
 <path d="m43.539 32.609c0.50391-0.52734 1.4141-0.52734 1.9219 0 0.38281 0.38281 1 0.38281 1.3828 0s0.38281-1 0-1.3828c-1.2305-1.2852-3.4492-1.2852-4.6836 0-0.88281 0.94141 0.44141 2.2656 1.3828 1.3828z"/>
 <path d="m54.539 32.609c0.50391-0.52734 1.4141-0.52734 1.9219 0 0.38281 0.38281 1 0.38281 1.3828 0s0.38281-1 0-1.3828c-1.2344-1.2852-3.4492-1.2852-4.6836 0-0.88281 0.94141 0.44141 2.2656 1.3828 1.3828z"/>
 <path d="m53.781 43.133h-7.5625c-0.53906 0-0.97656 0.4375-0.97656 0.97656v0.71875c0.26172 6.3125 9.2539 6.3086 9.5156 0v-0.71875c0-0.53906-0.4375-0.97656-0.97656-0.97656zm-3.7812 4.5c-1.4609 0-2.6602-1.1211-2.793-2.5469h5.5859c-0.12891 1.4258-1.332 2.5469-2.793 2.5469z"/>
 <path d="m81.641 56.086c1.3867 0 2.7734-0.52734 3.8281-1.582 0.88281-0.94141-0.4375-2.2656-1.3828-1.3828-1.3477 1.3477-3.5469 1.3477-4.8945 0-0.9375-0.88281-2.2656 0.4375-1.3828 1.3828 1.0547 1.0547 2.4414 1.582 3.8281 1.582z"/>
 <path d="m95.602 66.906-7.8203-4.5039v-1.4297c1.2695-0.50781 3.4648-2.6367 4.5469-3.4961 1.75-1.4805 2.7539-3.6484 2.7539-5.9375v-11.473h0.82812c3.8516-0.11719 4.2344-5.5117 0.47266-6.1914-0.074218-3.5625-1.4922-6.9023-4.0195-9.4297-0.38281-0.38281-1-0.38281-1.3828 0-0.38281 0.38281-0.38281 1 0 1.3828 2.1484 2.1523 3.3672 4.9844 3.4492 8.0117h-7.2852l1.5-12.699c0.050781-0.42969-0.1875-0.83984-0.58594-1.0117-4.0391-1.7539-8.8047-1.7383-12.836 0.027344-0.39453 0.17188-0.63281 0.58203-0.58203 1.0117l0.074219 0.62109c-0.96484 0.46875-1.875 1.0508-2.7109 1.7305-0.39453-1.1523-1.4844-1.9883-2.7695-1.9883h-12.582l1.6953-14.348c4.2617 2.4297 7.2812 6.6328 8.1797 11.48 0.097656 0.53125 0.60938 0.87891 1.1367 0.78125 0.53125-0.097656 0.87891-0.60937 0.78125-1.1367-1.0547-5.6836-4.7148-10.574-9.8516-13.211l0.16797-1.4375c0.050781-0.42969-0.1875-0.83984-0.58594-1.0117-2.5742-1.1055-5.3047-1.6641-8.1211-1.6641-2.8516 0-5.6211 0.57422-8.2266 1.6992-0.39453 0.17188-0.63281 0.58203-0.58203 1.0117l0.17188 1.4414c-6.1055 3.1641-10.047 9.5039-10.164 16.395h-0.48047c-1.2852 0-2.3789 0.83203-2.7695 1.9883-0.83203-0.67969-1.7461-1.2617-2.7109-1.7305l0.074219-0.62109c0.050781-0.42969-0.1875-0.83984-0.58203-1.0117-2.0469-0.88672-4.2188-1.3359-6.457-1.3359-2.2109 0-4.3555 0.44141-6.375 1.3086-0.39844 0.17188-0.63672 0.58203-0.58594 1.0117l0.074218 0.62109c-3.8633 1.8516-6.6562 5.3867-7.5312 9.5977-0.10938 0.52734 0.23047 1.0469 0.75781 1.1562 0.52734 0.10938 1.0469-0.23047 1.1562-0.75781 0.70703-3.3906 2.8594-6.2734 5.8633-7.9258l1.1836 10.008-8.7773-0.007813c-1.7188 0-3.1172 1.3984-3.1172 3.1172s1.3984 3.1172 3.1172 3.1172h0.82812v11.473c0 2.293 1.0039 4.457 2.7539 5.9414 1.0898 0.86328 3.2617 2.9766 4.5469 3.4961v1.4297l-7.8203 4.5039c-2.1133 1.2148-3.4219 3.4844-3.4219 5.9219-0.007813 3.332 0.003906 10.148 0 13.504v11.715c0 0.53906 0.4375 0.97656 0.97656 0.97656h96.094c0.53906 0 0.97656-0.4375 0.97656-0.97656v-25.215c0-2.4375-1.3125-4.707-3.4219-5.9219zm-0.97656 1.6953c1.5078 0.86719 2.4453 2.4883 2.4453 4.2305v5.3164h-14.453v-6.1172l4.9727-6.7266c0.14062-0.1875 0.20312-0.41797 0.19141-0.65234l6.8477 3.9453zm2.4453 16.754h-14.453v-5.2539h14.453zm-17.254 1.9531h0.84766v9.7617h-10.059l-0.55078-4.4922 4.8984-4.5039c2.2148-2.0352 3.1836-5.0508 2.5977-7.9688h3.1133v5.2539h-0.84766c-1.2891 0.039063-1.2891 1.9141 0 1.9531zm-17.289 5.7656c-3.9375-1.8359-11.848-5.5195-15.781-7.3516l4.9648-5.6875 6.6836 1.5312 11.945 2.6328c0.29297 0.066406 0.60156-0.007813 0.83594-0.20312 0.23047-0.19531 0.36328-0.48438 0.35156-0.78516-0.070313-1.9531-0.51562-3.582-1.3281-4.8516-0.92188-1.457-2.5117-2.3906-4.2422-2.5234l7.2461-4.6211c0.44922 1.6289 2 7.6406 2.3477 8.8906 0.51562 1.9336 0.09375 4.0898-1.1406 5.6719-0.3125 0.5625-5.4844 5.1328-6.0469 5.6992-1.5547 1.4336-3.75 2.043-5.8359 1.5938zm-24.957-0.023438c-2.1172 0.48438-4.3359-0.10547-5.9336-1.5742-0.59375-0.60156-5.7266-5.125-6.0625-5.7188-1.2227-1.6016-1.6367-3.7148-1.125-5.6523 0.019531-0.050781 0.14844-0.52734 0.19922-0.73438 0.36328-1.3906 1.7344-6.6406 2.1484-8.1562l8.2617 5.2656v5.3281c0.003906 0.1875 0.058594 0.37891 0.16016 0.53516 0.10156 0.14844 0.23828 0.27344 0.40234 0.34766 0 0 9.1211 4.2461 9.125 4.25l6.4297 2.9961-13.605 3.1094zm-18.234-21.02 4.9727-6.7266c0.14062-0.1875 0.20312-0.41797 0.19141-0.65234l2.7266 1.5703c-0.66016 0.68359-1.207 1.4727-1.6094 2.332-0.050782 0.085937-0.10938 0.21484-0.1875 0.43359-0.24609 0.58203-0.46875 1.5156-0.63281 2.1328-0.33594 1.1953-1.1992 4.5352-1.8516 7.0234h-3.6094v-6.1172zm6.8945-12.172 2.8164-2.3867c1.75-1.4805 2.7539-3.6484 2.7539-5.9414v-10.488c0.35938 0.15234 0.73828 0.26562 1.1289 0.33594v1.5547c0 2.875 1.2578 5.5938 3.4531 7.4531l3.6367 3.0781c0.71094 0.60156 1.5 1.0898 2.3359 1.4648v2.1953c-2.3086 1.3281-10.812 6.2305-13.27 7.6445-0.074219 0.042969-0.14844 0.089844-0.22266 0.13672l-4.3633-2.5117v-1.4297c0.62109-0.28906 1.2031-0.66016 1.7305-1.1094zm42.234-32.012c-0.48047 0.92188-0.85547 1.8945-1.1172 2.8984-0.089844-0.019532-0.18359-0.039063-0.27734-0.058594v-2.8438h1.3945zm12.199 50.301h-3.6094c-0.65625-2.5-1.5156-5.832-1.8516-7.0312-0.16406-0.62109-0.38281-1.543-0.63281-2.125-0.078124-0.21875-0.13672-0.34766-0.1875-0.43359-0.40625-0.85938-0.94922-1.6484-1.6094-2.332l2.7266-1.5703c-0.011719 0.23047 0.050781 0.46484 0.19141 0.65234 0 0 4.9727 6.7266 4.9727 6.7266v6.1172zm-35.953-22.5c1.0234 0.25781 7.7734 0.09375 8.957 0.13672 0.67969 0 1.3555-0.078125 2.0234-0.21094v4.0742l-5.6875 7.6953-5.6875-7.6953v-4.0742c0.13281 0.023437 0.26562 0.050781 0.40234 0.074219zm21.93 8.9219-1.793 2.6953-4.1875-2.7852 1.6133-2.4258c1.0117 0.58203 3.3828 1.9492 4.3672 2.5156zm-27.301-0.089843-4.1875 2.7852-1.793-2.6953c0.80859-0.46484 3.6133-2.082 4.3672-2.5156zm-11.867 4.7344c0.57422-1.1406 1.4844-2.1016 2.5859-2.7422 0 0 1.6016-0.92188 1.6016-0.92188l2.4023 3.6133c0.17578 0.26953 0.48828 0.4375 0.8125 0.4375 0.19141 0 0.37891-0.054687 0.53906-0.16406l5.8164-3.8672c0.44922-0.29687 0.57031-0.90625 0.27344-1.3555l-2.082-3.1328 2.9336-1.6914c0.007812 0.35547-0.0625 0.87109 0.19141 1.1641 0 0 6.4766 8.7578 6.4766 8.7578v3.6055h-12.012v-0.55469c-0.042969-1.293-1.9102-1.293-1.9531 0v1.8047l-7.6289-4.8633c0.015624-0.03125 0.027343-0.058594 0.042968-0.089844zm35.516 6.7305v0.44922c-0.59766 0.25781-2.8047 1.9219-3.3789 2.3047l-1.2109 0.85938-6.8203-1.5625c-0.20312-0.046875-0.41406-0.027344-0.60156 0.054687v-3.1836h12.012zm-21.133 2.1055c0.20312 0.027344 2.6602 0.26562 2.7812 0.30859 0.75 0.14844 1.4297 0.53906 1.9414 1.1172l1.5273 1.7227-3.1992 3.6641-7.8906-3.6758v-0.85547l2.5039-1.6992c0.68359-0.46484 1.5156-0.67187 2.3398-0.58594zm7.168 1.2461-0.74609-0.84375c-0.92578-1.1523-2.2852-1.9414-3.7617-2.0859-0.42969-0.039063-2.6367-0.30078-3.0273-0.28906-0.78906 0-1.5703 0.17578-2.2891 0.50391-0.57031 0.23438-1.6641 1.0547-2.1914 1.3945v-3.1055h12.012v4.4258zm14.293-0.83203c0.32031-0.22266 0.67188-0.39844 1.043-0.51562 1.5234-0.50781 3.3516 0.089843 4.1992 1.4648 0.44531 0.69531 0.75 1.5625 0.90625 2.5898l-8.4922-1.8711 2.3438-1.6641zm1.625-4.2969v-1.8047c-0.039062-1.2891-1.9141-1.2891-1.9531 0v0.55469h-12.012v-3.6055l6.4766-8.7578c0.25391-0.29297 0.18359-0.80859 0.19141-1.1641l2.9336 1.6914-2.082 3.1328c-0.29688 0.44922-0.17578 1.0547 0.27344 1.3555l5.8164 3.8672c0.16016 0.10547 0.35156 0.16406 0.53906 0.16406 0.32422 0 0.63672-0.16406 0.8125-0.4375l2.4023-3.6133c0.37109 0.22266 1.7461 0.98438 2.0703 1.2227 0.91797 0.64453 1.6758 1.5195 2.1641 2.5312l-7.6289 4.8633zm10.559-13.195v1.4297l-4.3633 2.5117c-0.074219-0.046874-0.14844-0.09375-0.22656-0.13672l-13.27-7.6445v-2.1953c0.83984-0.375 1.6289-0.86328 2.3359-1.4648l3.6367-3.0781c2.1953-1.8594 3.4531-4.5742 3.4531-7.4531v-1.5547c0.39453-0.070313 0.77344-0.18359 1.1289-0.33594v10.488c0 2.293 1.0039 4.457 2.7539 5.9414 1.0898 0.86328 3.2617 2.9766 4.5469 3.4961zm-6.9453-27.398c0.27344 0.27344 0.49219 0.58203 0.65625 0.91797 0.44141 0.92187 0.44531 2.0664 0.054687 2.9727-0.11328 0.25391-0.25781 0.49219-0.42969 0.71094-0.26953 0.10156-0.48438 0.31641-0.58203 0.58594-0.34766 0.27734-0.75 0.49219-1.1914 0.62109v-6.6914c0.55469 0.16016 1.0664 0.46094 1.4883 0.88281zm-3.4375-2v11.367c0 2.3008-1.0078 4.4727-2.7617 5.9609l-3.6367 3.0781c-1.0547 0.89453-2.3281 1.4844-3.6797 1.7305-0.44922 0.082031-0.91016 0.12109-1.3711 0.12109-1.0078-0.042969-7.8711 0.11328-8.7031-0.12109-1.3516-0.24219-2.625-0.83594-3.6797-1.7305l-3.6367-3.0781c-1.7539-1.4883-2.7617-3.6602-2.7617-5.9609v-2.4453-12.652h30.23zm-33.375 7.1875c-0.097657-0.27344-0.30859-0.48828-0.58203-0.58594-0.16797-0.21875-0.3125-0.45703-0.42969-0.71094-0.38281-0.89453-0.38672-2.0234 0.042969-2.9414 0.42578-0.87891 1.207-1.5547 2.1602-1.832v6.6914c-0.4375-0.12891-0.83984-0.34375-1.1914-0.62109zm1.1875-8.0742c-0.09375 0.015625-0.18359 0.035156-0.27344 0.058594-0.26172-1.0039-0.63672-1.9805-1.1211-2.9023h1.3945zm-10.484 49.414c-0.35547 1.7617-0.14062 3.625 0.62109 5.2539h-3.7305v-5.2539zm1.8711 7.207c0.30078 0.45703 5.1289 4.7734 5.6289 5.2656l-0.55078 4.4922h-10.059v-9.7617h4.9805zm61.508-25.719v2.8164l-4.1875 5.6641-4.1875-5.6641v-2.8164c0.44531 0.078125 0.89453 0.11719 1.3477 0.11719 1.0195-0.039062 6.125 0.10547 7.0273-0.11719zm7.3008-10.055c0 1.7188-0.75 3.3398-2.0625 4.4492l-2.8164 2.3867c-0.66016 0.55859-1.4297 0.95703-2.2578 1.1836-0.49219 0.13281-1 0.19922-1.5117 0.19922h-5.6797c-1.3711 0-2.7188-0.49219-3.7695-1.3828l-2.8164-2.3867c-1.3125-1.1094-2.0625-2.7305-2.0625-4.4492v-11.473h22.973v11.473zm2.2852-15.75h0.5c1.5391 0.054688 1.5391 2.2695 0 2.3242h-1.8047-22.984c0.29688-0.70703 0.44531-1.5195 0.40625-2.3242zm-13.73-15.02c1.6992 0 3.3555 0.29688 4.9336 0.87891l-1.4375 12.188h-7.0742l-1.4375-12.16c1.6016-0.60156 3.2852-0.90625 5.0117-0.90625zm-6.7227 3.0898 1.1797 9.9766h-5.0703c-0.03125-0.074219-0.066406-0.14453-0.10156-0.21484-0.40625-0.85547-1.0195-1.5703-1.8008-2.0859 0.39844-1.7031 1.1758-3.3086 2.2695-4.6836 0.042968-0.050781 0.085937-0.10547 0.12891-0.15625 0.94922-1.1484 2.1055-2.1133 3.3945-2.832zm-33.297-16.637 0.60547 5.1328 0.72266 6.1367c0.19141 1.2773 2.0508 1.0586 1.9414-0.23047-0.41016-3.4727-1.2539-10.625-1.6602-14.066 4.2578-1.6719 9.1953-1.6875 13.461-0.03125l-2.0508 17.363h-21.477c0.11328-5.9141 3.3633-11.371 8.457-14.305zm-11.867 17.234c0-0.53906 0.4375-0.97656 0.97656-0.97656h24.777 13.684c0.53906 0 0.97656 0.4375 0.97656 0.97656v0.46094c0 0.53906-0.4375 0.97656-0.97656 0.97656h-38.461c-0.53906 0-0.97656-0.4375-0.97656-0.97656zm-1.3555 2.2344c0.042969 0.054688 0.085938 0.10547 0.12891 0.16016 1.0938 1.375 1.8711 2.9805 2.2695 4.6836-0.84766 0.5625-1.5 1.3516-1.9023 2.3047h-5.0703l1.1797-9.9766c1.2891 0.72266 2.4492 1.6836 3.3945 2.832zm-10.117-5.9219c1.7305 0 3.4102 0.30469 5.0117 0.90625l-1.4375 12.16h-7.0742l-1.4375-12.188c1.5781-0.58594 3.2344-0.87891 4.9336-0.87891zm-15.391 16.184c0-0.64062 0.52344-1.1641 1.1641-1.1641h0.5 23.887c-0.039063 0.80469 0.10938 1.6172 0.40625 2.3242l-24.793 0.003906c-0.64062 0-1.1641-0.52344-1.1641-1.1641zm6.0078 19.035c-1.3086-1.1094-2.0625-2.7305-2.0625-4.4492v-11.473h22.973v11.473c0 1.7188-0.75 3.3398-2.0625 4.4492l-2.8164 2.3867c-0.53516 0.45312-1.1406 0.80078-1.7891 1.0352-0.63281 0.23047-1.3047 0.34766-1.9805 0.34766h-5.6797c-1.3711 0-2.7188-0.49219-3.7695-1.3828l-2.8164-2.3867zm5.5586 5.6523c0.58203 0.12891 5.9922 0.046875 6.707 0.066406 0.44922-0.003906 0.90234-0.039063 1.3477-0.11719v2.8164l-4.1875 5.6641-4.1875-5.6641v-2.8164c0.10547 0.019531 0.21484 0.035156 0.32031 0.050781zm-11.566 11.195c0-1.7422 0.9375-3.3633 2.4453-4.2305l6.8477-3.9453c-0.011718 0.23047 0.050782 0.46484 0.19141 0.65234 0 0 4.9727 6.7266 4.9727 6.7266v6.1172l-11.953-0.003906c-0.53906 0-0.97656 0.4375-0.97656 0.97656s0.4375 0.97656 0.97656 0.97656h11.949v5.2539h-14.453v-12.527zm0 14.477h14.453v9.7617h-14.453zm28.812 6.668c1.4453 0.85547 3.1445 1.2773 4.8203 1.1797 0.48047 0.14062 11.648-2.5781 12.461-2.7188v4.6328h-17.656l0.37891-3.0938zm19.234 3.0938v-5.082l3.0859-0.70703 7.7344 3.6055c0.0625 0.027343 0.12891 0.050781 0.19531 0.066406 2.1133 0.48828 4.3984 0.12891 6.2617-0.98047l0.37891 3.0938h-17.656zm31.641 0v-9.7617h14.453v9.7617z"/>
 <path d="m18.359 56.086c1.3867 0 2.7734-0.52734 3.8281-1.582 0.88281-0.94141-0.4375-2.2656-1.3828-1.3828-1.3477 1.3477-3.5469 1.3477-4.8945 0-0.9375-0.88281-2.2656 0.4375-1.3828 1.3828 1.0547 1.0547 2.4414 1.582 3.8281 1.582z"/>
</svg>