<svg xmlns="http://www.w3.org/2000/svg" version="1.1" viewBox="-5.0 -10.0 110.0 135.0">
 <path d="m44.5 38.891c0.53906 0 0.97656-0.4375 0.97656-0.97656v-2.7578c-0.039062-1.2891-1.9141-1.293-1.9531 0v2.7578c0 0.53906 0.4375 0.97656 0.97656 0.97656z"/>
 <path d="m55.5 34.18c-0.53906 0-0.97656 0.4375-0.97656 0.97656v2.7578c0.039062 1.2891 1.9141 1.293 1.9531 0v-2.7578c0-0.53906-0.4375-0.97656-0.97656-0.97656z"/>
 <path d="m45.461 32.609c0.94141 0.88281 2.2656-0.44141 1.3828-1.3828-1.2891-1.2891-3.3906-1.293-4.6836 0-0.38281 0.38281-0.38281 1 0 1.3828 0.38281 0.38281 1 0.38281 1.3828 0 0.53125-0.53125 1.3906-0.53125 1.9219 0z"/>
 <path d="m54.539 32.609c0.53125-0.53125 1.3906-0.53125 1.9219 0 0.38281 0.38281 1 0.38281 1.3828 0s0.38281-1 0-1.3828c-1.2891-1.2891-3.3906-1.2891-4.6836 0-0.88281 0.94141 0.44141 2.2656 1.3828 1.3828z"/>
 <path d="m53.781 43.133h-7.5625c-0.53906 0-0.97656 0.4375-0.97656 0.97656v0.71875c0.26172 6.3125 9.2539 6.3086 9.5156 0v-0.71875c0-0.53906-0.4375-0.97656-0.97656-0.97656zm-3.7812 4.5c-1.4609 0-2.6602-1.1211-2.793-2.5469h5.5859c-0.12891 1.4258-1.332 2.5469-2.793 2.5469z"/>
 <path d="m77.438 79.602c-0.16016-0.50781-2.7188-10.598-2.8906-10.668-0.55469-1.3477-1.457-2.5469-2.6016-3.4492-0.67187-0.57812-3.4102-2.0469-4.2031-2.5273l-5.2891-3.0469-0.85547-0.49219c-1.1094-0.59766-2.0547 0.94922-1.0195 1.6602l-2.0859 3.1406c-0.29688 0.44922-0.17578 1.0547 0.27344 1.3555l5.8164 3.8672c0.16797 0.10938 0.35547 0.16406 0.53906 0.16406 0.31641 0 0.625-0.15234 0.8125-0.4375l2.4023-3.6133c0.37109 0.22266 1.7461 0.98437 2.0703 1.2227 0.92188 0.64062 1.6719 1.5234 2.1641 2.5312l-7.6289 4.8633v-1.8047c-0.039062-1.2891-1.9141-1.2891-1.9531 0v0.55469h-12.012v-3.6055l6.4766-8.7578c0.125-0.16797 0.19141-0.37109 0.19141-0.58203v-5.0352c0.83984-0.375 1.625-0.86328 2.3359-1.4648l3.6367-3.0781c2.1953-1.8594 3.4531-4.5742 3.4531-7.4531v-1.5547c5.918-1.1953 5.9141-9.5039 0-10.695v-2.8438h2.1602c1.8594-0.023437 3.0938-1.5781 2.9297-3.3906 0-1.6172-1.3125-2.9297-2.9297-2.9297h-0.48047c-0.078125-6.9219-4.0273-13.281-10.164-16.434l0.16797-1.4375c0.050782-0.42969-0.1875-0.83984-0.58594-1.0117-5.1445-2.2344-11.211-2.2148-16.348 0.035156-0.39453 0.17188-0.63281 0.58203-0.58203 1.0117l2.1055 17.836h-10.145c0.09375-5.0352 2.3906-9.7109 6.3438-12.867 0.42188-0.33594 0.49219-0.94922 0.15234-1.3711-0.33594-0.42188-0.95312-0.49219-1.3711-0.15234-4.418 3.5273-6.9883 8.7578-7.0781 14.391h-0.48047c-1.6172 0-2.9297 1.3125-2.9297 2.9297-0.16406 1.8125 1.0703 3.3672 2.9297 3.3906h2.1602v2.8438c-5.918 1.1953-5.9141 9.5039 0 10.695v1.5547c0 2.875 1.2578 5.5938 3.4531 7.4531l3.6367 3.0781c0.71094 0.60156 1.4961 1.0898 2.3359 1.4648v2.1992l-4.8086 2.7695-6.0625 3.4922c-0.59766 0.35938-2.6367 1.4727-3.1562 1.875-1.3984 1.0156-2.4727 2.4648-3.0391 4.0977-0.074218 0.21094-0.14062 0.42188-0.19922 0.63672l-2.5273 9.5898c-0.8125 3.0742 0.14062 6.3203 2.4844 8.4727l4.9023 4.5039-0.65234 5.3516c-0.078125 0.5625 0.39844 1.1094 0.96875 1.0938h39.477c0.56641 0.011718 1.0508-0.53125 0.96875-1.0938l-0.19531-1.6016c-0.19922-1.2773-2.0547-1.0469-1.9375 0.23828l0.0625 0.50781h-17.656v-5.082l3.0859-0.70703 7.7344 3.6055c0.67578 0.22266 1.4023 0.26953 2.0977 0.28125 2.1211 0 4.1914-0.78906 5.7891-2.2539l5.2695-4.8438c2.3438-2.1523 3.293-5.3984 2.4844-8.4727zm-10.797-15.031-1.793 2.6953-4.1875-2.7852 1.6133-2.4258c0.84375 0.48437 3.5742 2.0586 4.3672 2.5156zm-29.629 15.766c0.36719-0.23047 2.6523-1.8516 3.0039-1.9766 0.57422-0.26562 1.2109-0.37109 1.8398-0.30469 0.19141 0.023437 2.668 0.26562 2.7812 0.30859 0.75 0.14844 1.4297 0.53906 1.9414 1.1172l1.5273 1.7227-3.1992 3.6641-7.8906-3.6758v-0.85547zm12.012-1.0391c-0.44141-0.48047-1.1758-1.3945-1.6875-1.7773-0.67578-0.53516-1.4648-0.90234-2.3164-1.0742-0.30469-0.074218-2.5977-0.28906-2.9609-0.33594-1.125-0.11719-2.2734 0.125-3.2578 0.67578-0.28906 0.15234-1.5 1-1.7891 1.1914v-3.1055h12.012zm14.293-0.83203c0.32031-0.22266 0.67188-0.39844 1.043-0.51562 1.5234-0.50781 3.3555 0.089843 4.1992 1.4609 0.44531 0.69531 0.75 1.5625 0.90625 2.5898l-8.4922-1.8711zm-0.32812-3.5938v1.5273c-0.59766 0.25781-2.7578 1.8906-3.332 2.2734l-1.2148 0.86328-6.8594-1.5352c-0.19922-0.042969-0.41406-0.027344-0.60156 0.054688v-3.1836h12.012zm6.5898-38.836c0 1.582-1.0586 2.9219-2.5078 3.3438v-6.6914c1.4492 0.42188 2.5078 1.7617 2.5078 3.3438zm-19.527-33.105c2.3047 0 4.5469 0.41406 6.6797 1.2344l-0.16406 1.3828-1.8867 15.977h-9.3633l-2.0469-17.328c2.1602-0.83984 4.4414-1.2656 6.7812-1.2656zm-20.258 21.988v-0.46094c0-0.53906 0.4375-0.97656 0.97656-0.97656h32.797c0.53906 0 0.97656-0.4375 0.97656-0.97656 0-0.53906-0.4375-0.97656-0.97656-0.97656h-6.9219c0.050781-0.44531 1.5938-13.516 1.6953-14.348 5.4258 3.0781 8.7109 9.0508 8.4609 15.324 0 0.53906 0.4375 0.97656 0.97656 0.97656h1.4531c0.53906 0 0.97656 0.4375 0.97656 0.97656v0.46094c0 0.53906-0.4375 0.97656-0.97656 0.97656h-38.461c-0.53906 0-0.97656-0.4375-0.97656-0.97656zm0.62891 11.117c0-1.582 1.0586-2.9219 2.5078-3.3438v6.6914c-1.4492-0.42187-2.5078-1.7617-2.5078-3.3438zm7.2266 12.867c-1.7578-1.4883-2.7617-3.6602-2.7617-5.9609v-2.4453-12.652h30.23c0.003906 3.8047-0.003907 11.27 0 15.098 0 2.3008-1.0078 4.4727-2.7617 5.9609l-3.6367 3.0781c-0.75391 0.64062-1.6211 1.125-2.5469 1.4375-0.80469 0.27734-1.6523 0.41406-2.5039 0.41406h-7.3359c-1.8359 0-3.6445-0.66016-5.0508-1.8516l-3.6367-3.0781zm7.0625 6.7461c1.0273 0.25781 7.7734 0.09375 8.957 0.13672 0.67969 0 1.3555-0.078125 2.0234-0.21094v4.0742l-5.6914 7.6953-5.6914-7.6953v-4.0742c0.13281 0.023437 0.26562 0.050781 0.40234 0.074219zm-5.3711 8.832-4.1875 2.7852-1.793-2.6953 4.3672-2.5156zm-7.6758 1.0703 2.4023 3.6133c0.1875 0.28125 0.5 0.4375 0.8125 0.4375 0.1875 0 0.375-0.054687 0.53906-0.16406l5.8164-3.8672c0.44922-0.29687 0.57031-0.90625 0.27344-1.3555l-2.082-3.1328 2.9336-1.6914c0.007813 0.35547-0.0625 0.87109 0.19141 1.1641 0 0 6.4766 8.7578 6.4766 8.7578v3.6055h-12.012v-0.55469c-0.039063-1.2891-1.9141-1.2891-1.9531 0v1.8047l-7.6289-4.8633c0.49609-1.0078 1.2422-1.8867 2.1641-2.5312 0.32031-0.23828 1.7109-1.0078 2.0703-1.2227zm-7.2109 14.547 2.3398-8.8867 8.2656 5.2695v5.332c0 0.37891 0.21875 0.72656 0.5625 0.88672l9.1211 4.2461 6.4336 2.9961-13.605 3.1094c-2.1172 0.48438-4.3359-0.10547-5.9336-1.5742l-5.2695-4.8438c-1.8086-1.6602-2.543-4.1641-1.9141-6.5352zm24.57 16.973h-17.656l0.37891-3.0977c1.8672 1.1055 4.1055 1.4766 6.2617 0.98438l11.016-2.5195zm24.609-10.438-5.2695 4.8438c-1.5742 1.4453-3.75 2.0391-5.8359 1.5938-3.9375-1.8359-11.848-5.5195-15.781-7.3516l4.6211-5.293 0.34766-0.39844s6.6797 1.5312 6.6836 1.5273l11.949 2.6328c0.125 0.023438 0.25781 0.03125 0.38281 0.007812 0.46875-0.078124 0.82812-0.52344 0.80469-0.99609-0.085937-3.6953-1.8086-7.043-5.5742-7.3711l7.25-4.6211 2.3398 8.8867c0.625 2.3711-0.10938 4.875-1.918 6.5352z"/>
</svg>